var fontJSON1=
{"glyphs":{"0":{"ha":958,"x_min":-25,"x_max":983,"o":"m 829 150 q 764 41 814 82 q 647 0 714 0 l 108 0 q 8 41 40 0 q -10 150 -25 82 l 129 808 q 194 917 144 876 q 311 958 244 958 l 850 958 q 951 917 918 958 q 968 808 983 876 l 829 150 m 456 838 l 303 119 l 503 119 l 656 838 l 456 838 z "},"1":{"ha":539,"x_min":58,"x_max":581,"o":"m 378 0 l 58 0 l 236 838 l 117 838 l 142 958 l 581 958 l 378 0 z "},"2":{"ha":958,"x_min":-42,"x_max":983,"o":"m 303 119 l 822 119 l 797 0 l -42 0 l 15 269 q 81 378 31 338 q 197 419 131 419 l 567 419 l 656 838 l 456 838 l 422 679 l 103 679 l 129 808 q 194 917 144 876 q 311 958 244 958 l 850 958 q 951 917 918 958 q 968 808 983 876 l 893 450 q 828 341 878 382 q 711 300 778 300 l 342 300 l 303 119 z "},"3":{"ha":958,"x_min":-24,"x_max":983,"o":"m 319 200 l 303 119 l 503 119 l 567 419 l 367 419 l 392 539 l 592 539 l 656 838 l 456 838 l 422 679 l 103 679 l 129 808 q 194 917 144 876 q 311 958 244 958 l 850 958 q 951 917 918 958 q 968 808 983 876 l 918 568 q 888 515 911 540 q 838 479 865 490 q 873 442 860 467 q 879 389 886 417 l 829 150 q 764 41 814 82 q 647 0 714 0 l 108 0 q 8 41 40 0 q -10 150 -24 82 l 0 200 l 319 200 z "},"4":{"ha":958,"x_min":-3,"x_max":958,"o":"m 439 958 l 325 419 l 525 419 l 639 958 l 958 958 l 756 0 l 436 0 l 500 300 l 131 300 q 30 341 63 300 q 13 450 -3 382 l 119 958 l 439 958 z "},"5":{"ha":958,"x_min":-24,"x_max":957,"o":"m 829 150 q 764 41 814 82 q 647 0 714 0 l 108 0 q 8 41 40 0 q -10 150 -24 82 l 0 200 l 319 200 l 303 119 l 503 119 l 567 419 l 47 419 l 161 958 l 957 958 l 931 838 l 656 838 l 456 838 l 392 539 l 761 539 q 862 498 829 539 q 879 389 894 457 l 829 150 z "},"6":{"ha":958,"x_min":-25,"x_max":983,"o":"m 829 150 q 764 41 814 82 q 647 0 714 0 l 108 0 q 8 41 40 0 q -10 150 -25 82 l 129 808 q 194 917 144 876 q 311 958 244 958 l 850 958 q 951 917 918 958 q 968 808 983 876 l 942 679 l 622 679 l 656 838 l 456 838 l 392 539 l 911 539 l 829 150 m 367 419 l 303 119 l 503 119 l 567 419 l 367 419 z "},"7":{"ha":958,"x_min":103,"x_max":1000,"o":"m 797 0 l 478 0 l 656 838 l 456 838 l 422 679 l 103 679 l 129 808 q 194 917 144 876 q 311 958 244 958 l 1000 958 l 797 0 z "},"8":{"ha":958,"x_min":-25,"x_max":983,"o":"m 829 150 q 764 41 814 82 q 647 0 714 0 l 108 0 q 8 41 40 0 q -10 150 -25 82 l 40 389 q 69 442 47 417 q 119 479 92 467 q 85 515 97 490 q 79 568 72 540 l 129 808 q 194 917 144 876 q 311 958 244 958 l 850 958 q 951 917 918 958 q 968 808 983 876 l 918 568 q 888 515 911 540 q 838 479 865 490 q 873 442 860 467 q 879 389 886 417 l 829 150 m 456 838 l 392 539 l 592 539 l 656 838 l 456 838 m 367 419 l 303 119 l 503 119 l 567 419 l 367 419 z "},"9":{"ha":958,"x_min":-24,"x_max":983,"o":"m 456 838 l 367 419 l 567 419 l 656 838 l 456 838 m 129 808 q 194 917 144 876 q 311 958 244 958 l 850 958 q 951 917 918 958 q 968 808 983 876 l 829 150 q 764 41 814 82 q 647 0 714 0 l 108 0 q 8 41 40 0 q -10 150 -24 82 l 0 200 l 319 200 l 303 119 l 503 119 l 542 300 l 172 300 q 72 341 104 300 q 54 450 39 382 l 129 808 z "},"\u0000":{"ha":0,"x_min":0,"x_max":0,"o":""},"\r":{"ha":958,"x_min":0,"x_max":0,"o":""}," ":{"ha":268,"x_min":0,"x_max":0,"o":""},"Š":{"ha":958,"x_min":-46,"x_max":961,"o":"m 610 1033 l 490 1033 l 615 1153 l 735 1153 l 610 1033 m 739 539 q 840 498 807 539 q 857 389 872 457 l 807 150 q 742 41 792 82 q 625 0 692 0 l 86 0 q -14 41 18 0 q -32 150 -46 82 l -6 279 l 314 279 l 281 119 l 481 119 l 544 419 l 175 419 q 74 460 107 419 q 57 569 42 501 l 107 808 q 172 917 122 876 q 289 958 222 958 l 828 958 q 928 917 896 958 q 946 808 961 876 l 919 679 l 600 679 l 633 838 l 433 838 l 369 539 l 739 539 z "},"š":{"ha":869,"x_min":-26,"x_max":856,"o":"m 574 838 l 454 838 l 578 958 l 699 958 l 574 838 m 682 438 q 760 404 735 438 q 775 318 786 371 l 740 150 q 676 41 726 82 q 558 0 625 0 l 107 0 q 6 41 39 0 q -11 150 -26 82 l 6 224 l 301 224 l 275 106 l 435 106 l 483 332 l 178 332 q 77 373 110 332 q 60 482 44 414 l 94 647 q 147 733 106 700 q 240 767 188 767 l 751 767 q 830 733 804 767 q 844 647 856 700 l 822 543 l 528 543 l 554 661 l 394 661 l 346 438 l 682 438 z "},"Ý":{"ha":918,"x_min":121,"x_max":958,"o":"m 592 1033 l 472 1033 l 597 1153 l 717 1153 l 592 1033 m 560 300 l 496 0 l 178 0 l 242 300 l 121 958 l 440 958 l 531 464 l 829 958 l 958 958 l 560 300 z "},"ý":{"ha":869,"x_min":-6,"x_max":892,"o":"m 594 838 l 475 838 l 599 958 l 719 958 l 594 838 m 111 -86 l 417 -86 l 435 0 l 128 0 q 27 41 60 0 q 10 150 -6 82 l 142 767 l 438 767 l 297 106 l 457 106 l 597 767 l 892 767 l 721 -42 q 656 -151 706 -110 q 539 -192 606 -192 l 88 -192 l 111 -86 z "},"Þ":{"ha":958,"x_min":-42,"x_max":954,"o":"m 831 160 l 311 160 l 278 0 l -42 0 l 161 958 l 481 958 l 451 818 l 821 818 q 922 777 889 818 q 939 668 954 736 l 831 160 m 426 699 l 336 279 l 536 279 l 626 699 l 426 699 z "},"þ":{"ha":869,"x_min":-62,"x_max":876,"o":"m 728 0 l 274 0 l 233 -192 l -62 -192 l 182 958 l 478 958 l 438 767 l 772 767 q 851 733 825 767 q 865 647 876 700 l 728 0 m 415 661 l 296 106 l 456 106 l 575 661 l 415 661 z "},"Ł":{"ha":799,"x_min":-49,"x_max":663,"o":"m 638 0 l -42 0 l 38 374 l -49 357 l -49 474 l 64 496 l 161 958 l 481 958 l 397 564 l 483 582 l 483 464 l 371 442 l 303 119 l 663 119 l 638 0 z "},"Ž":{"ha":799,"x_min":-62,"x_max":821,"o":"m 556 1029 l 436 1029 l 361 1150 l 482 1150 l 511 1101 l 561 1150 l 681 1150 l 556 1029 m 794 838 l 282 119 l 642 119 l 617 0 l -62 0 l -37 119 l 475 838 l 115 838 l 142 958 l 821 958 l 794 838 z "},"ž":{"ha":664,"x_min":-60,"x_max":686,"o":"m 468 836 l 349 836 l 274 956 l 393 956 l 424 908 l 474 956 l 593 956 l 468 836 m 667 671 l 257 96 l 544 96 l 524 0 l -60 0 l -39 96 l 371 671 l 83 671 l 103 767 l 686 767 l 667 671 z "},"¦":{"ha":317,"x_min":-64,"x_max":381,"o":"m 271 443 l 71 443 l 181 958 l 381 958 l 271 443 m 136 -192 l -64 -192 l 46 324 l 246 324 l 136 -192 z "},"−":{"ha":535,"x_min":64,"x_max":547,"o":"m 522 300 l 64 300 l 89 419 l 547 419 l 522 300 z "},"×":{"ha":696,"x_min":-8,"x_max":707,"o":"m 432 310 l 610 86 l 507 -1 l 331 224 l 58 -1 l -8 85 l 263 310 l 86 538 l 192 621 l 367 396 l 639 621 l 707 535 l 432 310 z "},"ł":{"ha":501,"x_min":-49,"x_max":483,"o":"m 483 464 l 346 436 l 254 0 l -42 0 l 38 374 l -49 357 l -49 474 l 64 496 l 161 958 l 457 958 l 372 558 l 483 582 l 483 464 z "},"!":{"ha":360,"x_min":43,"x_max":486,"o":"m 347 300 l 107 300 l 246 958 l 486 958 l 347 300 m 283 0 l 43 0 l 76 160 l 317 160 l 283 0 z "},"\"":{"ha":501,"x_min":33,"x_max":471,"o":"m 372 647 l 253 647 l 311 926 l 471 926 l 372 647 m 153 647 l 33 647 l 92 926 l 250 926 l 153 647 z "},"#":{"ha":881,"x_min":-11,"x_max":890,"o":"m 856 558 l 696 558 l 663 399 l 822 399 l 788 239 l 628 239 l 578 0 l 418 0 l 468 239 l 308 239 l 258 0 l 99 0 l 149 239 l -11 239 l 24 399 l 183 399 l 217 558 l 57 558 l 92 718 l 251 718 l 301 958 l 461 958 l 411 718 l 571 718 l 621 958 l 781 958 l 731 718 l 890 718 l 856 558 m 376 558 l 343 399 l 503 399 l 536 558 l 376 558 z "},"$":{"ha":958,"x_min":-24,"x_max":983,"o":"m 850 958 q 951 917 918 958 q 968 808 983 876 l 942 679 l 622 679 l 656 838 l 456 838 l 392 539 l 761 539 q 862 498 829 539 q 879 389 894 457 l 829 150 q 764 41 814 82 q 647 0 714 0 l 438 0 l 421 -79 l 301 -79 l 318 0 l 108 0 q 8 41 40 0 q -10 150 -24 82 l 17 279 l 336 279 l 303 119 l 503 119 l 567 419 l 197 419 q 97 460 129 419 q 79 569 64 501 l 129 808 q 194 917 144 876 q 311 958 244 958 l 521 958 l 538 1038 l 657 1038 l 640 958 l 850 958 z "},"%":{"ha":958,"x_min":67,"x_max":900,"o":"m 415 575 l 81 575 l 161 958 l 496 958 l 415 575 m 197 0 l 67 0 l 769 958 l 900 958 l 197 0 m 797 0 l 461 0 l 542 383 l 878 383 l 797 0 m 279 910 l 218 622 l 299 622 l 360 910 l 279 910 m 660 335 l 599 47 l 679 47 l 740 335 l 660 335 z "},"&":{"ha":958,"x_min":-3,"x_max":931,"o":"m 129 0 q 29 41 61 0 q 11 150 -3 82 l 60 389 q 90 442 67 417 q 140 479 113 467 q 105 515 118 490 q 99 568 92 540 l 150 808 q 214 917 164 876 q 332 958 264 958 l 861 958 l 835 838 l 475 838 l 411 539 l 611 539 l 642 679 l 801 679 l 771 539 l 931 539 l 906 419 l 746 419 l 617 -186 l 457 -186 l 497 0 l 129 0 m 386 419 l 322 119 l 522 119 l 586 419 l 386 419 z "},"'":{"ha":238,"x_min":65,"x_max":283,"o":"m 185 647 l 65 647 l 124 926 l 283 926 l 185 647 z "},"(":{"ha":561,"x_min":-47,"x_max":619,"o":"m 594 838 l 475 838 l 281 -72 l 400 -72 l 375 -192 l 86 -192 q -15 -151 18 -192 q -32 -42 -47 -110 l 149 808 q 213 917 164 876 q 331 958 263 958 l 619 958 l 594 838 z "},")":{"ha":561,"x_min":-64,"x_max":603,"o":"m 407 -42 q 342 -150 392 -108 q 226 -192 293 -192 l -64 -192 l -39 -72 l 82 -72 l 276 838 l 156 838 l 181 958 l 471 958 q 570 917 538 958 q 588 808 603 875 l 407 -42 z "},"*":{"ha":667,"x_min":26,"x_max":640,"o":"m 615 649 l 422 649 l 483 481 l 368 422 l 308 588 l 176 422 l 86 481 l 218 649 l 26 649 l 51 767 l 244 767 l 183 933 l 299 993 l 358 826 l 490 993 l 581 933 l 447 767 l 640 767 l 615 649 z "},"+":{"ha":858,"x_min":22,"x_max":814,"o":"m 781 303 l 481 303 l 415 0 l 257 0 l 322 303 l 22 303 l 56 463 l 356 463 l 421 767 l 579 767 l 514 463 l 814 463 l 781 303 z "},",":{"ha":361,"x_min":54,"x_max":328,"o":"m 294 0 q 285 -18 294 0 q 263 -58 275 -36 q 241 -98 251 -79 q 229 -119 231 -117 l 110 -119 l 175 0 l 54 0 l 88 160 l 328 160 l 294 0 z "},"-":{"ha":535,"x_min":25,"x_max":510,"o":"m 485 300 l 25 300 l 50 419 l 510 419 l 485 300 z "},".":{"ha":360,"x_min":43,"x_max":317,"o":"m 283 0 l 43 0 l 76 160 l 317 160 l 283 0 z "},"/":{"ha":443,"x_min":-122,"x_max":565,"o":"m 8 -192 l -122 -192 l 435 958 l 565 958 l 8 -192 z "},":":{"ha":360,"x_min":43,"x_max":407,"o":"m 372 421 l 132 421 l 167 581 l 407 581 l 372 421 m 283 0 l 43 0 l 76 160 l 317 160 l 283 0 z "},";":{"ha":360,"x_min":43,"x_max":407,"o":"m 372 421 l 132 421 l 167 581 l 407 581 l 372 421 m 283 0 q 274 -18 283 0 q 252 -58 264 -36 q 229 -98 240 -79 q 217 -119 218 -117 l 97 -119 l 164 0 l 43 0 l 76 160 l 317 160 l 283 0 z "},"<":{"ha":657,"x_min":26,"x_max":692,"o":"m 664 560 l 163 344 l 572 128 l 544 0 l 26 286 l 51 404 l 692 689 l 664 560 z "},"=":{"ha":760,"x_min":-11,"x_max":771,"o":"m 736 458 l 57 458 l 92 618 l 771 618 l 736 458 m 668 140 l -11 140 l 24 300 l 703 300 l 668 140 z "},">":{"ha":658,"x_min":-33,"x_max":632,"o":"m 607 286 l -33 0 l -6 128 l 496 344 l 86 560 l 114 689 l 632 404 l 607 286 z "},"?":{"ha":958,"x_min":103,"x_max":983,"o":"m 497 0 l 258 0 l 292 160 l 531 160 l 497 0 m 347 419 l 567 419 l 656 838 l 456 838 l 422 679 l 103 679 l 129 808 q 194 917 144 876 q 311 958 244 958 l 850 958 q 951 917 918 958 q 968 808 983 876 l 893 450 q 828 341 878 382 q 711 300 778 300 l 322 300 l 347 419 z "},"@":{"ha":864,"x_min":22,"x_max":856,"o":"m 839 468 q 806 378 831 425 q 748 290 782 332 q 672 217 714 249 q 585 171 629 185 q 554 165 568 165 l 232 165 q 181 187 197 165 q 172 242 165 208 l 215 440 q 247 494 222 474 q 306 515 272 515 l 517 515 l 532 582 l 339 582 l 353 649 l 657 649 q 706 628 690 649 q 715 574 722 607 l 654 285 q 726 369 697 321 q 765 468 754 417 q 768 588 779 535 q 724 676 757 640 q 641 732 692 713 q 525 751 590 751 q 387 724 454 751 q 263 648 319 696 q 167 537 207 600 q 113 403 128 474 q 110 269 97 332 q 159 159 124 207 q 251 83 194 111 q 378 56 307 56 q 544 92 463 56 q 685 204 626 129 l 769 204 q 588 39 694 96 q 363 -18 482 -18 q 208 16 276 -18 q 97 108 140 50 q 38 242 53 165 q 40 403 22 318 q 107 564 58 488 q 223 697 156 640 q 372 788 290 754 q 540 822 454 822 q 683 797 619 822 q 786 726 746 772 q 841 615 826 681 q 839 468 856 550 m 403 447 l 357 232 l 457 232 l 503 447 l 403 447 z "},"A":{"ha":958,"x_min":-42,"x_max":983,"o":"m 797 0 l 478 0 l 542 300 l 342 300 l 278 0 l -42 0 l 129 808 q 194 917 144 876 q 311 958 244 958 l 850 958 q 951 917 918 958 q 968 808 983 876 l 797 0 m 456 838 l 367 419 l 567 419 l 656 838 l 456 838 z "},"B":{"ha":958,"x_min":-42,"x_max":983,"o":"m 918 568 q 888 515 911 540 q 838 479 865 490 q 873 442 860 467 q 879 389 886 417 l 829 150 q 764 41 814 82 q 647 0 714 0 l -42 0 l 161 958 l 850 958 q 951 917 918 958 q 968 808 983 876 l 918 568 m 456 838 l 392 539 l 592 539 l 656 838 l 456 838 m 367 419 l 303 119 l 503 119 l 567 419 l 367 419 z "},"C":{"ha":778,"x_min":-25,"x_max":840,"o":"m 108 0 q 8 41 40 0 q -10 150 -25 82 l 129 808 q 194 917 144 876 q 311 958 244 958 l 840 958 l 815 838 l 456 838 l 294 119 l 663 119 l 638 0 l 108 0 z "},"D":{"ha":958,"x_min":-42,"x_max":983,"o":"m 829 150 q 764 41 814 82 q 647 0 714 0 l -42 0 l 161 958 l 850 958 q 951 917 918 958 q 968 808 983 876 l 829 150 m 456 838 l 303 119 l 503 119 l 656 838 l 456 838 z "},"E":{"ha":778,"x_min":-25,"x_max":840,"o":"m 108 0 q 8 41 40 0 q -10 150 -25 82 l 129 808 q 194 917 144 876 q 311 958 244 958 l 840 958 l 815 838 l 456 838 l 392 539 l 671 539 l 646 419 l 367 419 l 303 119 l 663 119 l 638 0 l 108 0 z "},"F":{"ha":778,"x_min":-42,"x_max":840,"o":"m 815 838 l 456 838 l 392 539 l 671 539 l 646 419 l 367 419 l 278 0 l -42 0 l 129 808 q 194 917 144 876 q 311 958 244 958 l 840 958 l 815 838 z "},"G":{"ha":958,"x_min":-25,"x_max":983,"o":"m 108 0 q 8 41 40 0 q -10 150 -25 82 l 129 808 q 194 917 144 876 q 311 958 244 958 l 850 958 q 951 917 918 958 q 968 808 983 876 l 942 679 l 622 679 l 656 838 l 456 838 l 303 119 l 503 119 l 546 319 l 425 319 l 450 439 l 890 439 l 829 150 q 764 41 814 82 q 647 0 714 0 l 108 0 z "},"H":{"ha":958,"x_min":-42,"x_max":1000,"o":"m 797 0 l 478 0 l 542 300 l 342 300 l 278 0 l -42 0 l 161 958 l 481 958 l 367 419 l 567 419 l 681 958 l 1000 958 l 797 0 z "},"I":{"ha":438,"x_min":-43,"x_max":479,"o":"m 276 0 l -43 0 l 160 958 l 479 958 l 276 0 z "},"J":{"ha":958,"x_min":-25,"x_max":1000,"o":"m 829 150 q 764 41 814 82 q 647 0 714 0 l 108 0 q 8 44 40 6 q -10 150 -25 82 l 26 319 l 346 319 l 303 119 l 503 119 l 681 958 l 1000 958 l 829 150 z "},"K":{"ha":936,"x_min":-42,"x_max":1000,"o":"m 617 546 l 797 0 l 478 0 l 381 293 l 328 236 l 278 0 l -42 0 l 161 958 l 481 958 l 368 425 l 864 958 l 1000 958 l 617 546 z "},"L":{"ha":781,"x_min":-42,"x_max":663,"o":"m 638 0 l -42 0 l 161 958 l 481 958 l 303 119 l 663 119 l 638 0 z "},"M":{"ha":1118,"x_min":-32,"x_max":1151,"o":"m 949 0 l 631 0 l 749 556 l 428 0 l 297 0 l 206 556 l 88 0 l -32 0 l 171 958 l 460 958 l 547 435 l 850 958 l 1151 958 l 949 0 z "},"N":{"ha":978,"x_min":-42,"x_max":1019,"o":"m 817 0 l 497 0 l 406 601 l 278 0 l -42 0 l 161 958 l 481 958 l 572 356 l 700 958 l 1019 958 l 817 0 z "},"O":{"ha":958,"x_min":-25,"x_max":983,"o":"m 829 150 q 764 41 814 82 q 647 0 714 0 l 108 0 q 8 41 40 0 q -10 150 -25 82 l 129 808 q 194 917 144 876 q 311 958 244 958 l 850 958 q 951 917 918 958 q 968 808 983 876 l 829 150 m 456 838 l 303 119 l 503 119 l 656 838 l 456 838 z "},"P":{"ha":958,"x_min":-42,"x_max":983,"o":"m 892 449 q 826 340 876 381 q 710 299 776 299 l 342 300 l 278 0 l -42 0 l 161 958 l 850 958 q 951 917 918 958 q 968 808 983 876 l 892 449 m 456 838 l 367 419 l 567 419 l 656 838 l 456 838 z "},"Q":{"ha":1038,"x_min":-46,"x_max":963,"o":"m 88 0 q -13 41 19 0 q -31 150 -46 82 l 110 808 q 174 917 125 875 q 290 958 224 958 l 829 958 q 930 917 897 958 q 947 808 963 876 l 801 119 l 921 119 l 896 0 l 88 0 m 436 838 l 283 119 l 482 119 l 635 838 l 436 838 z "},"R":{"ha":958,"x_min":-42,"x_max":982,"o":"m 456 838 l 367 419 l 565 419 l 654 838 l 456 838 m 797 0 l 478 0 l 432 300 l 342 300 l 278 0 l -42 0 l 161 958 l 850 958 q 950 917 918 958 q 967 808 982 876 l 892 450 q 841 353 879 392 q 750 304 803 315 l 797 0 z "},"S":{"ha":958,"x_min":-24,"x_max":983,"o":"m 761 539 q 862 498 829 539 q 879 389 894 457 l 829 150 q 764 41 814 82 q 647 0 714 0 l 108 0 q 8 41 40 0 q -10 150 -24 82 l 17 279 l 336 279 l 303 119 l 503 119 l 567 419 l 197 419 q 97 460 129 419 q 79 569 64 501 l 129 808 q 194 917 144 876 q 311 958 244 958 l 850 958 q 951 917 918 958 q 968 808 983 876 l 942 679 l 622 679 l 656 838 l 456 838 l 392 539 l 761 539 z "},"T":{"ha":878,"x_min":117,"x_max":939,"o":"m 914 838 l 675 838 l 497 0 l 178 0 l 356 838 l 117 838 l 142 958 l 939 958 l 914 838 z "},"U":{"ha":958,"x_min":-25,"x_max":1000,"o":"m 829 150 q 764 41 814 82 q 647 0 714 0 l 108 0 q 8 41 40 0 q -10 150 -25 82 l 161 958 l 481 958 l 303 119 l 503 119 l 681 958 l 1000 958 l 829 150 z "},"V":{"ha":918,"x_min":142,"x_max":979,"o":"m 517 0 l 199 0 l 142 958 l 461 958 l 501 240 l 849 958 l 979 958 l 517 0 z "},"W":{"ha":1426,"x_min":136,"x_max":1493,"o":"m 1031 0 l 711 0 l 690 368 l 513 0 l 193 0 l 136 958 l 456 958 l 497 239 l 676 608 l 656 958 l 975 958 l 1017 239 l 1364 958 l 1493 958 l 1031 0 z "},"X":{"ha":938,"x_min":-61,"x_max":1000,"o":"m 601 531 l 776 0 l 457 0 l 358 301 l 78 0 l -61 0 l 322 411 l 142 958 l 461 958 l 565 642 l 860 958 l 1000 958 l 601 531 z "},"Y":{"ha":918,"x_min":142,"x_max":979,"o":"m 581 300 l 517 0 l 199 0 l 263 300 l 142 958 l 461 958 l 551 464 l 850 958 l 979 958 l 581 300 z "},"Z":{"ha":758,"x_min":-61,"x_max":819,"o":"m 794 838 l 283 119 l 642 119 l 617 0 l -61 0 l -36 119 l 475 838 l 117 838 l 142 958 l 819 958 l 794 838 z "},"[":{"ha":561,"x_min":-62,"x_max":621,"o":"m 596 838 l 476 838 l 282 -72 l 401 -72 l 376 -192 l -62 -192 l 182 958 l 621 958 l 596 838 z "},"\\":{"ha":342,"x_min":71,"x_max":269,"o":"m 139 -192 l 71 958 l 200 958 l 269 -192 l 139 -192 z "},"]":{"ha":519,"x_min":-82,"x_max":601,"o":"m 357 -192 l -82 -192 l -57 -72 l 63 -72 l 257 838 l 138 838 l 163 958 l 601 958 l 357 -192 z "},"^":{"ha":397,"x_min":22,"x_max":342,"o":"m 222 836 l 196 900 l 142 836 l 22 836 l 156 996 l 275 996 l 342 836 l 222 836 z "},"_":{"ha":679,"x_min":-12,"x_max":692,"o":"m 667 -239 l -12 -239 l 13 -119 l 692 -119 l 667 -239 z "},"`":{"ha":733,"x_min":11,"x_max":754,"o":"m 82 414 q 199 454 149 414 q 264 564 250 494 l 269 592 l 11 592 l 33 697 l 293 697 l 328 851 l 33 851 l 56 958 l 754 958 l 732 853 l 621 853 l 588 697 l 699 697 l 676 592 l 564 592 l 535 458 q 469 349 518 390 q 353 308 419 308 l 454 0 l 135 0 l 35 308 l 58 414 l 82 414 z "},"a":{"ha":869,"x_min":-26,"x_max":854,"o":"m 706 0 l 107 0 q 6 41 39 0 q -11 150 -26 82 l 49 435 q 100 521 60 488 q 193 554 140 554 l 529 554 l 553 661 l 244 661 l 267 767 l 750 767 q 828 733 803 767 q 843 647 854 700 l 706 0 m 347 447 l 274 106 l 433 106 l 507 447 l 347 447 z "},"b":{"ha":869,"x_min":-43,"x_max":857,"o":"m 394 661 l 276 106 l 436 106 l 554 661 l 394 661 m 457 958 l 417 767 l 751 767 q 831 733 804 767 q 846 647 857 700 l 740 150 q 675 41 725 82 q 558 0 625 0 l -43 0 l 160 958 l 457 958 z "},"c":{"ha":682,"x_min":-28,"x_max":703,"o":"m 93 647 q 145 733 104 700 q 239 767 186 767 l 703 767 l 681 661 l 393 661 l 274 106 l 561 106 l 539 0 l 106 0 q 5 41 38 0 q -12 150 -28 82 l 93 647 z "},"d":{"ha":869,"x_min":-26,"x_max":911,"o":"m 708 0 l 107 0 q 6 41 39 0 q -11 150 -26 82 l 96 647 q 147 733 107 700 q 240 767 188 767 l 576 767 l 617 958 l 911 958 l 708 0 m 394 661 l 276 106 l 436 106 l 554 661 l 394 661 z "},"e":{"ha":869,"x_min":-28,"x_max":854,"o":"m 393 661 l 319 319 l 479 319 l 553 661 l 393 661 m 93 647 q 145 733 104 700 q 239 767 186 767 l 750 767 q 828 733 803 767 q 843 647 854 700 l 751 211 l 297 211 l 274 106 l 728 106 l 706 0 l 106 0 q 5 41 38 0 q -12 150 -28 82 l 93 647 z "},"f":{"ha":764,"x_min":58,"x_max":847,"o":"m 825 853 l 538 853 l 519 767 l 743 767 l 721 661 l 497 661 l 357 0 l 63 0 l 203 661 l 58 661 l 81 767 l 225 767 q 241 835 232 801 q 267 897 250 869 q 311 941 283 924 q 385 958 339 958 l 847 958 l 825 853 z "},"g":{"ha":869,"x_min":-28,"x_max":868,"o":"m 392 661 l 274 106 l 433 106 l 551 661 l 392 661 m 88 -86 l 393 -86 l 411 0 l 106 0 q 5 41 38 0 q -12 150 -28 82 l 93 647 q 144 733 104 700 q 238 767 185 767 l 868 767 l 697 -42 q 632 -151 682 -110 q 515 -192 582 -192 l 64 -192 l 88 -86 z "},"h":{"ha":869,"x_min":-42,"x_max":857,"o":"m 708 0 l 414 0 l 554 661 l 394 661 l 254 0 l -42 0 l 161 958 l 457 958 l 417 767 l 751 767 q 831 733 804 767 q 846 647 857 700 l 708 0 z "},"i":{"ha":415,"x_min":-42,"x_max":457,"o":"m 435 853 l 139 853 l 161 958 l 457 958 l 435 853 m 254 0 l -42 0 l 121 767 l 417 767 l 254 0 z "},"j":{"ha":415,"x_min":-204,"x_max":478,"o":"m 456 853 l 160 853 l 182 958 l 478 958 l 456 853 m 265 -42 q 200 -151 250 -110 q 83 -192 150 -192 l -204 -192 l -182 -86 l -40 -86 l 142 767 l 438 767 l 265 -42 z "},"k":{"ha":860,"x_min":-47,"x_max":835,"o":"m 546 472 l 703 0 l 407 0 l 326 247 l 293 215 l 247 0 l -47 0 l 156 958 l 450 958 l 328 381 l 707 767 l 835 767 l 546 472 z "},"l":{"ha":415,"x_min":-42,"x_max":457,"o":"m 254 0 l -42 0 l 161 958 l 457 958 l 254 0 z "},"m":{"ha":1325,"x_min":-22,"x_max":1332,"o":"m 1183 0 l 888 0 l 1029 661 l 869 661 l 728 0 l 433 0 l 575 661 l 415 661 l 274 0 l -22 0 l 142 767 l 1228 767 q 1306 733 1281 767 q 1321 647 1332 700 l 1183 0 z "},"n":{"ha":869,"x_min":-22,"x_max":876,"o":"m 728 0 l 433 0 l 575 661 l 415 661 l 274 0 l -22 0 l 142 767 l 772 767 q 851 733 825 767 q 865 647 876 700 l 728 0 z "},"o":{"ha":869,"x_min":-29,"x_max":853,"o":"m 392 661 l 272 106 l 432 106 l 551 661 l 392 661 m 92 647 q 144 733 103 700 q 238 767 185 767 l 749 767 q 827 733 801 767 q 842 647 853 700 l 738 150 q 672 41 722 82 q 556 0 622 0 l 104 0 q 3 41 36 0 q -14 150 -29 82 l 92 647 z "},"p":{"ha":869,"x_min":-42,"x_max":897,"o":"m 783 150 q 719 41 769 82 q 601 0 668 0 l 294 0 l 254 -192 l -42 -192 l 161 767 l 792 767 q 872 733 846 767 q 886 647 897 700 l 783 150 m 435 661 l 317 106 l 476 106 l 594 661 l 435 661 z "},"q":{"ha":869,"x_min":-26,"x_max":869,"o":"m 393 661 l 275 106 l 435 106 l 553 661 l 393 661 m 94 647 q 146 733 106 700 q 239 767 186 767 l 869 767 l 667 -192 l 372 -192 l 413 0 l 107 0 q 6 41 39 0 q -11 150 -26 82 l 94 647 z "},"r":{"ha":682,"x_min":-22,"x_max":725,"o":"m 703 661 l 415 661 l 274 0 l -22 0 l 115 647 q 167 733 126 700 q 261 767 208 767 l 725 767 l 703 661 z "},"s":{"ha":869,"x_min":-31,"x_max":851,"o":"m 678 438 q 756 404 731 438 q 771 318 782 371 l 736 150 q 672 41 722 82 q 554 0 621 0 l 103 0 q 2 41 35 0 q -15 150 -31 82 l 1 224 l 297 224 l 271 106 l 431 106 l 479 332 l 174 332 q 73 373 106 332 q 56 482 40 414 l 90 647 q 142 733 101 700 q 236 767 183 767 l 747 767 q 826 733 800 767 q 840 647 851 700 l 818 543 l 524 543 l 550 661 l 390 661 l 342 438 l 678 438 z "},"t":{"ha":654,"x_min":50,"x_max":656,"o":"m 203 0 q 102 41 135 0 q 85 150 69 82 l 193 661 l 50 661 l 72 767 l 215 767 l 256 958 l 551 958 l 511 767 l 656 767 l 633 661 l 489 661 l 371 106 l 515 106 l 493 0 l 203 0 z "},"u":{"ha":869,"x_min":-28,"x_max":869,"o":"m 415 767 l 274 106 l 433 106 l 575 767 l 869 767 l 739 150 q 674 41 724 82 q 557 0 624 0 l 106 0 q 5 41 38 0 q -12 150 -28 82 l 119 767 l 415 767 z "},"v":{"ha":789,"x_min":121,"x_max":832,"o":"m 460 0 l 164 0 l 121 767 l 417 767 l 446 236 l 704 767 l 832 767 l 460 0 z "},"w":{"ha":1206,"x_min":122,"x_max":1247,"o":"m 876 0 l 581 0 l 568 221 l 461 0 l 165 0 l 122 767 l 417 767 l 447 236 l 554 457 l 538 767 l 832 767 l 863 236 l 1119 767 l 1247 767 l 876 0 z "},"x":{"ha":806,"x_min":-42,"x_max":849,"o":"m 529 425 l 668 0 l 374 0 l 301 224 l 92 0 l -42 0 l 265 329 l 122 767 l 417 767 l 494 531 l 714 767 l 849 767 l 529 425 z "},"y":{"ha":869,"x_min":-28,"x_max":869,"o":"m 89 -86 l 394 -86 l 413 0 l 106 0 q 5 41 38 0 q -12 150 -28 82 l 119 767 l 415 767 l 275 106 l 435 106 l 575 767 l 869 767 l 699 -42 q 633 -151 683 -110 q 517 -192 583 -192 l 65 -192 l 89 -86 z "},"z":{"ha":664,"x_min":-42,"x_max":706,"o":"m 685 671 l 275 96 l 563 96 l 542 0 l -42 0 l -21 96 l 389 671 l 101 671 l 122 767 l 706 767 l 685 671 z "},"{":{"ha":618,"x_min":14,"x_max":681,"o":"m 656 838 l 536 838 l 458 474 q 429 421 451 446 q 379 383 407 396 q 414 346 401 371 q 419 293 426 321 l 342 -72 l 461 -72 l 436 -192 l 147 -192 q 47 -151 79 -192 q 29 -42 14 -110 l 88 233 q 82 286 94 261 q 47 324 69 311 l 72 443 q 122 481 100 456 q 151 533 144 506 l 210 808 q 274 917 225 876 q 392 958 324 958 l 681 958 l 656 838 z "},"|":{"ha":360,"x_min":43,"x_max":488,"o":"m 243 -192 l 43 -192 l 288 958 l 488 958 l 243 -192 z "},"}":{"ha":618,"x_min":-61,"x_max":606,"o":"m 532 533 q 538 481 525 506 q 572 443 550 456 l 547 324 q 497 286 519 311 q 468 233 475 261 l 410 -42 q 345 -151 394 -110 q 228 -192 296 -192 l -61 -192 l -36 -72 l 83 -72 l 161 293 q 190 346 168 321 q 240 383 213 371 q 205 421 217 396 q 200 474 193 446 l 278 838 l 158 838 l 183 958 l 472 958 q 573 917 540 958 q 590 808 606 876 l 532 533 z "},"~":{"ha":594,"x_min":36,"x_max":560,"o":"m 560 435 q 478 363 515 388 q 379 339 440 339 q 322 349 346 339 q 278 372 299 360 q 239 395 258 385 q 197 406 219 406 q 141 389 161 406 q 96 346 121 372 l 36 399 q 118 470 81 446 q 217 494 156 494 q 273 484 249 494 q 318 461 297 474 q 358 438 339 449 q 399 428 378 428 q 454 444 435 428 q 500 488 474 460 l 560 435 l 560 435 z "},"Ä":{"ha":958,"x_min":-42,"x_max":983,"o":"m 785 1028 l 625 1028 l 650 1147 l 810 1147 l 785 1028 m 565 1028 l 406 1028 l 431 1147 l 590 1147 l 565 1028 m 797 0 l 478 0 l 542 300 l 342 300 l 278 0 l -42 0 l 129 808 q 194 917 144 876 q 311 958 244 958 l 850 958 q 951 917 918 958 q 968 808 983 876 l 797 0 m 456 838 l 367 419 l 567 419 l 656 838 l 456 838 z "},"Å":{"ha":958,"x_min":-42,"x_max":983,"o":"m 742 1144 q 722 1098 736 1119 q 688 1060 708 1076 q 644 1035 668 1044 q 597 1026 621 1026 q 553 1035 572 1026 q 521 1060 533 1044 q 503 1098 508 1076 q 504 1144 499 1119 q 524 1191 510 1169 q 557 1228 538 1213 q 599 1253 576 1244 q 647 1263 622 1263 q 724 1228 696 1263 q 742 1144 751 1193 m 797 0 l 478 0 l 542 300 l 342 300 l 278 0 l -42 0 l 129 808 q 194 917 144 876 q 311 958 244 958 l 850 958 q 951 917 918 958 q 968 808 983 876 l 797 0 m 675 1144 q 667 1181 679 1167 q 633 1196 654 1196 q 593 1181 611 1196 q 571 1144 575 1165 q 578 1108 565 1124 q 611 1093 590 1093 q 651 1108 633 1093 q 675 1144 669 1122 m 456 838 l 367 419 l 567 419 l 656 838 l 456 838 z "},"Ç":{"ha":778,"x_min":-25,"x_max":840,"o":"m 369 -115 q 351 -151 365 -136 q 319 -176 338 -167 q 280 -191 300 -186 q 242 -196 260 -196 q 190 -188 214 -196 q 142 -171 165 -181 l 165 -133 q 199 -144 182 -139 q 235 -150 215 -150 q 266 -143 250 -150 q 286 -118 282 -136 q 277 -96 289 -101 q 251 -90 265 -90 q 221 -97 238 -90 l 203 -78 l 267 0 l 315 0 l 271 -54 q 299 -50 285 -50 q 353 -65 329 -50 q 369 -115 376 -81 m 108 0 q 8 41 40 0 q -10 150 -25 82 l 129 808 q 194 917 144 876 q 311 958 244 958 l 840 958 l 815 838 l 456 838 l 294 119 l 663 119 l 638 0 l 108 0 z "},"É":{"ha":778,"x_min":-25,"x_max":840,"o":"m 608 1033 l 489 1033 l 614 1153 l 733 1153 l 608 1033 m 108 0 q 8 41 40 0 q -10 150 -25 82 l 129 808 q 194 917 144 876 q 311 958 244 958 l 840 958 l 815 838 l 456 838 l 392 539 l 671 539 l 646 419 l 367 419 l 303 119 l 663 119 l 638 0 l 108 0 z "},"Ñ":{"ha":978,"x_min":-65,"x_max":997,"o":"m 831 1174 q 805 1114 821 1143 q 766 1062 789 1085 q 714 1025 743 1039 q 651 1011 685 1011 q 603 1018 624 1011 q 566 1033 583 1025 q 533 1049 549 1042 q 499 1056 517 1056 q 463 1044 479 1056 q 439 1014 446 1032 l 349 1014 q 374 1073 358 1044 q 413 1124 390 1101 q 465 1161 436 1147 q 528 1175 494 1175 q 575 1168 554 1175 q 613 1153 596 1161 q 647 1138 631 1144 q 681 1131 663 1131 q 717 1143 700 1131 q 740 1174 733 1156 l 831 1174 m 793 0 l 474 0 l 382 601 l 254 0 l -65 0 l 139 958 l 458 958 l 550 356 l 678 958 l 997 958 l 793 0 z "},"Ö":{"ha":958,"x_min":-25,"x_max":983,"o":"m 785 1028 l 625 1028 l 650 1147 l 810 1147 l 785 1028 m 565 1028 l 406 1028 l 431 1147 l 590 1147 l 565 1028 m 456 838 l 303 119 l 503 119 l 656 838 l 456 838 m 829 150 q 764 41 814 82 q 647 0 714 0 l 108 0 q 8 41 40 0 q -10 150 -25 82 l 129 808 q 194 917 144 876 q 311 958 244 958 l 850 958 q 951 917 918 958 q 968 808 983 876 l 829 150 z "},"Ü":{"ha":958,"x_min":-25,"x_max":1000,"o":"m 785 1028 l 625 1028 l 650 1147 l 810 1147 l 785 1028 m 565 1028 l 406 1028 l 431 1147 l 590 1147 l 565 1028 m 829 150 q 764 41 814 82 q 647 0 714 0 l 108 0 q 8 41 40 0 q -10 150 -25 82 l 161 958 l 481 958 l 303 119 l 503 119 l 681 958 l 1000 958 l 829 150 z "},"á":{"ha":869,"x_min":-4,"x_max":876,"o":"m 594 838 l 475 838 l 599 958 l 719 958 l 594 838 m 369 447 l 296 106 l 456 106 l 529 447 l 369 447 m 728 0 l 129 0 q 28 41 61 0 q 11 150 -4 82 l 71 435 q 122 521 82 488 q 215 554 163 554 l 551 554 l 575 661 l 267 661 l 289 767 l 772 767 q 851 733 825 767 q 865 647 876 700 l 728 0 z "},"à":{"ha":869,"x_min":-4,"x_max":876,"o":"m 482 838 l 407 958 l 528 958 l 603 838 l 482 838 m 369 447 l 296 106 l 456 106 l 529 447 l 369 447 m 728 0 l 129 0 q 28 41 61 0 q 11 150 -4 82 l 71 435 q 122 521 82 488 q 215 554 163 554 l 551 554 l 575 661 l 267 661 l 289 767 l 772 767 q 851 733 825 767 q 865 647 876 700 l 728 0 z "},"â":{"ha":869,"x_min":-4,"x_max":876,"o":"m 569 836 l 542 883 l 490 836 l 371 836 l 496 956 l 617 956 l 689 836 l 569 836 m 369 447 l 296 106 l 456 106 l 529 447 l 369 447 m 728 0 l 129 0 q 28 41 61 0 q 11 150 -4 82 l 71 435 q 122 521 82 488 q 215 554 163 554 l 551 554 l 575 661 l 267 661 l 289 767 l 772 767 q 851 733 825 767 q 865 647 876 700 l 728 0 z "},"ä":{"ha":869,"x_min":-4,"x_max":876,"o":"m 719 838 l 560 838 l 585 958 l 744 958 l 719 838 m 500 838 l 340 838 l 365 958 l 525 958 l 500 838 m 369 447 l 296 106 l 456 106 l 529 447 l 369 447 m 728 0 l 129 0 q 28 41 61 0 q 11 150 -4 82 l 71 435 q 122 521 82 488 q 215 554 163 554 l 551 554 l 575 661 l 267 661 l 289 767 l 772 767 q 851 733 825 767 q 865 647 876 700 l 728 0 z "},"ã":{"ha":869,"x_min":-4,"x_max":876,"o":"m 786 982 q 760 922 776 951 q 720 870 743 893 q 669 833 697 847 q 607 819 640 819 q 559 826 579 819 q 521 842 539 833 q 487 857 503 850 q 453 864 471 864 q 417 852 433 864 q 394 822 401 840 l 303 822 q 329 881 313 853 q 369 933 346 910 q 420 969 392 956 q 482 983 449 983 q 529 976 508 983 q 568 961 550 969 q 602 946 586 953 q 636 939 618 939 q 672 951 656 939 q 696 982 688 964 l 786 982 m 369 447 l 296 106 l 456 106 l 529 447 l 369 447 m 728 0 l 129 0 q 28 41 61 0 q 11 150 -4 82 l 71 435 q 122 521 82 488 q 215 554 163 554 l 551 554 l 575 661 l 267 661 l 289 767 l 772 767 q 851 733 825 767 q 865 647 876 700 l 728 0 z "},"å":{"ha":869,"x_min":-4,"x_max":876,"o":"m 676 957 q 657 910 671 932 q 623 873 643 889 q 579 848 603 857 q 532 839 556 839 q 488 848 507 839 q 456 873 468 857 q 438 910 443 889 q 439 957 433 932 q 458 1003 444 982 q 492 1041 472 1025 q 534 1066 511 1057 q 582 1075 557 1075 q 658 1040 631 1075 q 676 957 686 1006 m 610 957 q 601 994 614 979 q 568 1008 589 1008 q 528 993 546 1008 q 506 957 510 978 q 513 921 500 936 q 546 906 525 906 q 586 920 568 906 q 610 957 604 935 m 369 447 l 296 106 l 456 106 l 529 447 l 369 447 m 728 0 l 129 0 q 28 41 61 0 q 11 150 -4 82 l 71 435 q 122 521 82 488 q 215 554 163 554 l 551 554 l 575 661 l 267 661 l 289 767 l 772 767 q 851 733 825 767 q 865 647 876 700 l 728 0 z "},"ç":{"ha":682,"x_min":-6,"x_max":725,"o":"m 331 -115 q 312 -151 326 -136 q 278 -176 297 -167 q 239 -191 260 -186 q 200 -196 218 -196 q 149 -188 172 -196 q 101 -171 125 -181 l 126 -133 q 159 -144 143 -139 q 194 -150 175 -150 q 226 -143 210 -150 q 244 -118 242 -136 q 236 -96 249 -101 q 211 -90 224 -90 q 181 -97 197 -90 l 163 -78 l 226 0 l 275 0 l 231 -54 q 260 -50 244 -50 q 313 -66 289 -50 q 331 -115 338 -82 m 115 647 q 167 733 126 700 q 261 767 208 767 l 725 767 l 703 661 l 415 661 l 296 106 l 583 106 l 561 0 l 128 0 q 27 41 60 0 q 10 150 -6 82 l 115 647 z "},"é":{"ha":869,"x_min":-4,"x_max":878,"o":"m 594 838 l 475 838 l 599 958 l 719 958 l 594 838 m 417 661 l 343 319 l 503 319 l 576 661 l 417 661 m 117 647 q 169 733 128 700 q 263 767 210 767 l 774 767 q 852 733 826 767 q 867 647 878 700 l 775 211 l 321 211 l 297 106 l 751 106 l 729 0 l 129 0 q 28 41 61 0 q 11 150 -4 82 l 117 647 z "},"è":{"ha":869,"x_min":-4,"x_max":878,"o":"m 482 838 l 407 958 l 528 958 l 603 838 l 482 838 m 417 661 l 343 319 l 503 319 l 576 661 l 417 661 m 117 647 q 169 733 128 700 q 263 767 210 767 l 774 767 q 852 733 826 767 q 867 647 878 700 l 775 211 l 321 211 l 297 106 l 751 106 l 729 0 l 129 0 q 28 41 61 0 q 11 150 -4 82 l 117 647 z "},"ê":{"ha":869,"x_min":-4,"x_max":878,"o":"m 569 836 l 542 883 l 490 836 l 371 836 l 496 956 l 617 956 l 689 836 l 569 836 m 417 661 l 343 319 l 503 319 l 576 661 l 417 661 m 117 647 q 169 733 128 700 q 263 767 210 767 l 774 767 q 852 733 826 767 q 867 647 878 700 l 775 211 l 321 211 l 297 106 l 751 106 l 729 0 l 129 0 q 28 41 61 0 q 11 150 -4 82 l 117 647 z "},"ë":{"ha":869,"x_min":-4,"x_max":878,"o":"m 719 838 l 560 838 l 585 958 l 744 958 l 719 838 m 500 838 l 340 838 l 365 958 l 525 958 l 500 838 m 417 661 l 343 319 l 503 319 l 576 661 l 417 661 m 117 647 q 169 733 128 700 q 263 767 210 767 l 774 767 q 852 733 826 767 q 867 647 878 700 l 775 211 l 321 211 l 297 106 l 751 106 l 729 0 l 129 0 q 28 41 61 0 q 11 150 -4 82 l 117 647 z "},"í":{"ha":415,"x_min":-42,"x_max":447,"o":"m 322 838 l 203 838 l 326 958 l 447 958 l 322 838 m 254 0 l -42 0 l 121 767 l 417 767 l 254 0 z "},"ì":{"ha":415,"x_min":-42,"x_max":417,"o":"m 242 838 l 167 958 l 288 958 l 361 838 l 242 838 m 254 0 l -42 0 l 121 767 l 417 767 l 254 0 z "},"î":{"ha":415,"x_min":-42,"x_max":443,"o":"m 322 836 l 293 883 l 243 836 l 124 836 l 249 956 l 368 956 l 443 836 l 322 836 m 254 0 l -42 0 l 121 767 l 417 767 l 254 0 z "},"ï":{"ha":415,"x_min":-42,"x_max":496,"o":"m 471 838 l 311 838 l 336 958 l 496 958 l 471 838 m 251 838 l 92 838 l 117 958 l 276 958 l 251 838 m 253 0 l -42 0 l 121 767 l 415 767 l 253 0 z "},"ñ":{"ha":869,"x_min":-44,"x_max":854,"o":"m 763 982 q 736 922 753 951 q 697 870 719 893 q 647 833 675 847 q 583 819 618 819 q 535 826 556 819 q 497 842 515 833 q 463 857 479 850 q 429 864 447 864 q 394 852 410 864 q 372 822 379 840 l 281 822 q 306 881 290 853 q 345 933 322 910 q 397 969 368 956 q 458 983 425 983 q 506 976 485 983 q 544 961 526 969 q 578 946 563 953 q 613 939 594 939 q 648 951 632 939 q 672 982 664 964 l 763 982 m 706 0 l 411 0 l 551 661 l 392 661 l 251 0 l -44 0 l 118 767 l 749 767 q 828 733 801 767 q 843 647 854 700 l 706 0 z "},"ó":{"ha":869,"x_min":-6,"x_max":876,"o":"m 594 838 l 475 838 l 599 958 l 719 958 l 594 838 m 415 661 l 296 106 l 456 106 l 575 661 l 415 661 m 115 647 q 167 733 126 700 q 261 767 208 767 l 772 767 q 851 733 825 767 q 865 647 876 700 l 761 150 q 696 41 746 82 q 579 0 646 0 l 128 0 q 27 41 60 0 q 10 150 -6 82 l 115 647 z "},"ò":{"ha":869,"x_min":-6,"x_max":876,"o":"m 475 838 l 400 958 l 519 958 l 594 838 l 475 838 m 415 661 l 296 106 l 456 106 l 575 661 l 415 661 m 115 647 q 167 733 126 700 q 261 767 208 767 l 772 767 q 851 733 825 767 q 865 647 876 700 l 761 150 q 696 41 746 82 q 579 0 646 0 l 128 0 q 27 41 60 0 q 10 150 -6 82 l 115 647 z "},"ô":{"ha":869,"x_min":-6,"x_max":876,"o":"m 569 836 l 542 883 l 490 836 l 371 836 l 496 956 l 617 956 l 689 836 l 569 836 m 415 661 l 296 106 l 456 106 l 575 661 l 415 661 m 115 647 q 167 733 126 700 q 261 767 208 767 l 772 767 q 851 733 825 767 q 865 647 876 700 l 761 150 q 696 41 746 82 q 579 0 646 0 l 128 0 q 27 41 60 0 q 10 150 -6 82 l 115 647 z "},"ö":{"ha":869,"x_min":-6,"x_max":876,"o":"m 719 838 l 560 838 l 585 958 l 744 958 l 719 838 m 500 838 l 340 838 l 365 958 l 525 958 l 500 838 m 415 661 l 296 106 l 456 106 l 575 661 l 415 661 m 115 647 q 167 733 126 700 q 261 767 208 767 l 772 767 q 851 733 825 767 q 865 647 876 700 l 761 150 q 696 41 746 82 q 579 0 646 0 l 128 0 q 27 41 60 0 q 10 150 -6 82 l 115 647 z "},"õ":{"ha":869,"x_min":-6,"x_max":876,"o":"m 763 982 q 736 922 753 951 q 697 870 719 893 q 647 833 675 847 q 583 819 618 819 q 535 826 556 819 q 497 842 515 833 q 463 857 479 850 q 429 864 447 864 q 394 852 410 864 q 372 822 379 840 l 281 822 q 306 881 290 853 q 345 933 322 910 q 397 969 368 956 q 458 983 425 983 q 506 976 485 983 q 544 961 526 969 q 578 946 563 953 q 613 939 594 939 q 648 951 632 939 q 672 982 664 964 l 763 982 m 415 661 l 296 106 l 456 106 l 575 661 l 415 661 m 115 647 q 167 733 126 700 q 261 767 208 767 l 772 767 q 851 733 825 767 q 865 647 876 700 l 761 150 q 696 41 746 82 q 579 0 646 0 l 128 0 q 27 41 60 0 q 10 150 -6 82 l 115 647 z "},"ú":{"ha":869,"x_min":-6,"x_max":892,"o":"m 594 838 l 475 838 l 599 958 l 719 958 l 594 838 m 438 767 l 296 106 l 456 106 l 597 767 l 892 767 l 761 150 q 696 41 746 82 q 579 0 646 0 l 128 0 q 27 41 60 0 q 10 150 -6 82 l 142 767 l 438 767 z "},"ù":{"ha":869,"x_min":-6,"x_max":892,"o":"m 478 838 l 404 958 l 524 958 l 599 838 l 478 838 m 438 767 l 296 106 l 456 106 l 597 767 l 892 767 l 761 150 q 696 41 746 82 q 579 0 646 0 l 128 0 q 27 41 60 0 q 10 150 -6 82 l 142 767 l 438 767 z "},"û":{"ha":869,"x_min":-6,"x_max":892,"o":"m 569 836 l 542 883 l 490 836 l 371 836 l 496 956 l 617 956 l 689 836 l 569 836 m 438 767 l 296 106 l 456 106 l 597 767 l 892 767 l 761 150 q 696 41 746 82 q 579 0 646 0 l 128 0 q 27 41 60 0 q 10 150 -6 82 l 142 767 l 438 767 z "},"ü":{"ha":869,"x_min":-6,"x_max":892,"o":"m 719 838 l 560 838 l 585 958 l 744 958 l 719 838 m 500 838 l 340 838 l 365 958 l 525 958 l 500 838 m 438 767 l 296 106 l 456 106 l 597 767 l 892 767 l 761 150 q 696 41 746 82 q 579 0 646 0 l 128 0 q 27 41 60 0 q 10 150 -6 82 l 142 767 l 438 767 z "},"†":{"ha":636,"x_min":76,"x_max":660,"o":"m 635 558 l 456 558 l 296 -192 l 96 -192 l 256 558 l 76 558 l 101 679 l 281 679 l 340 958 l 540 958 l 481 679 l 660 679 l 635 558 z "},"°":{"ha":321,"x_min":19,"x_max":301,"o":"m 290 958 q 269 907 285 931 q 233 866 254 883 q 186 838 213 849 q 133 828 160 828 q 49 866 79 828 q 31 958 19 904 q 51 1008 36 985 q 88 1050 67 1032 q 135 1078 110 1068 q 189 1088 161 1088 q 272 1050 243 1088 q 290 958 301 1013 m 218 958 q 210 999 224 982 q 174 1015 197 1015 q 130 999 150 1015 q 104 958 110 982 q 112 918 99 935 q 149 901 125 901 q 192 918 172 901 q 218 958 213 935 z "},"¢":{"ha":576,"x_min":-12,"x_max":606,"o":"m 121 93 q 20 134 53 93 q 3 243 -12 175 l 88 643 q 124 710 97 689 q 183 740 150 732 q 253 746 217 747 q 321 744 289 744 l 340 839 l 431 839 l 411 744 l 606 744 l 586 656 l 342 656 l 242 183 l 486 183 l 467 93 l 272 93 l 253 0 l 163 0 l 182 93 l 121 93 z "},"£":{"ha":958,"x_min":-121,"x_max":983,"o":"m 942 679 l 622 679 l 656 838 l 456 838 l 392 539 l 592 539 l 567 419 l 367 419 l 303 119 l 503 118 l 519 200 l 839 200 l 797 0 l -121 0 l -96 119 l -17 119 l 47 419 l -32 419 l -7 539 l 72 539 l 129 808 q 194 917 144 876 q 311 958 244 958 l 850 958 q 951 917 918 958 q 968 808 983 876 l 942 679 z "},"§":{"ha":736,"x_min":-61,"x_max":778,"o":"m 497 761 l 519 864 l 381 864 l 339 668 l 736 668 l 594 0 l -61 0 l -19 194 l 239 194 l 217 92 l 356 92 l 397 288 l 0 288 l 119 851 q 165 928 131 899 q 246 957 199 957 l 693 957 q 756 938 738 957 q 776 890 774 919 q 770 826 778 861 q 756 761 763 792 l 497 761 m 319 576 l 278 381 l 417 381 l 458 576 l 319 576 z "},"•":{"ha":397,"x_min":31,"x_max":367,"o":"m 360 381 q 334 318 353 347 q 288 267 315 289 q 229 232 261 244 q 164 219 197 219 q 104 232 131 219 q 61 267 78 244 q 38 318 44 289 q 38 381 31 347 q 64 443 44 414 q 110 494 83 472 q 168 528 136 515 q 233 540 200 540 q 293 528 267 540 q 337 494 319 515 q 360 443 354 472 q 360 381 367 414 z "},"¶":{"ha":997,"x_min":3,"x_max":1060,"o":"m 1035 838 l 954 838 l 865 419 l 946 419 l 921 300 l 840 300 l 776 0 l 457 0 l 521 300 l 3 300 l 110 808 q 174 917 125 876 q 290 958 222 958 l 1060 958 l 1035 838 m 436 838 l 347 419 l 546 419 l 635 838 l 436 838 z "},"ß":{"ha":958,"x_min":-62,"x_max":1004,"o":"m 938 568 q 909 515 932 540 q 858 479 886 490 q 894 442 881 467 q 900 389 907 417 l 849 150 q 785 41 835 82 q 667 0 735 0 l 376 0 l 403 119 l 524 119 l 588 419 l 388 419 l 257 -192 l -62 -192 l 150 808 q 215 917 165 876 q 332 958 264 958 l 871 958 q 972 917 939 958 q 989 808 1004 876 l 938 568 m 476 838 l 413 539 l 613 539 l 676 838 l 476 838 z "},"®":{"ha":915,"x_min":21,"x_max":894,"o":"m 876 400 q 809 238 858 314 q 690 104 760 161 q 538 14 621 47 q 368 -19 454 -19 q 213 14 282 -19 q 99 104 143 47 q 38 238 54 161 q 39 400 21 314 q 106 562 57 486 q 224 694 156 638 q 376 784 293 751 q 546 817 460 817 q 701 784 632 817 q 815 695 771 751 q 877 563 860 639 q 876 400 894 486 m 803 400 q 804 535 818 472 q 753 644 790 597 q 659 717 717 690 q 531 743 601 743 q 391 716 460 743 q 266 642 322 689 q 169 533 210 596 q 114 400 129 471 q 112 266 99 329 q 162 156 125 203 q 256 81 199 108 q 383 54 313 54 q 524 81 456 54 q 650 155 593 108 q 747 265 707 201 q 803 400 788 328 m 449 575 l 406 369 l 504 369 l 547 575 l 449 575 m 617 164 l 460 164 l 436 310 l 392 310 l 361 164 l 206 164 l 306 633 l 643 633 q 691 613 675 633 q 700 560 707 592 l 656 351 q 638 321 651 332 q 606 310 625 310 l 593 310 l 617 164 z "},"©":{"ha":915,"x_min":21,"x_max":894,"o":"m 876 400 q 809 238 858 314 q 690 104 760 161 q 538 14 621 47 q 368 -19 454 -19 q 213 14 282 -19 q 99 104 143 47 q 38 238 54 161 q 39 400 21 314 q 106 562 57 486 q 224 694 156 638 q 376 784 293 751 q 546 817 460 817 q 701 784 632 817 q 815 695 771 751 q 877 563 860 639 q 876 400 894 486 m 803 400 q 804 535 818 472 q 753 644 790 597 q 659 717 717 690 q 531 743 601 743 q 391 716 460 743 q 266 642 322 689 q 169 533 210 596 q 114 400 129 471 q 112 266 99 329 q 162 156 125 203 q 256 81 199 108 q 383 54 313 54 q 524 81 456 54 q 650 155 593 108 q 747 265 707 201 q 803 400 788 328 m 331 556 q 362 609 338 589 q 419 629 386 629 l 678 629 l 665 571 l 489 571 l 414 218 l 590 218 l 578 160 l 322 160 q 272 181 288 160 q 263 236 256 201 l 331 556 z "},"™":{"ha":838,"x_min":63,"x_max":838,"o":"m 757 574 l 631 574 l 681 814 l 542 574 l 490 574 l 454 796 l 407 574 l 358 574 l 439 957 l 554 957 l 590 747 l 711 957 l 838 957 l 757 574 m 382 908 l 286 908 l 215 574 l 88 574 l 158 908 l 63 908 l 72 957 l 392 957 l 382 908 z "},"´":{"ha":319,"x_min":38,"x_max":282,"o":"m 157 836 l 38 836 l 163 956 l 282 956 l 157 836 z "},"¨":{"ha":458,"x_min":28,"x_max":432,"o":"m 407 838 l 247 838 l 272 958 l 432 958 l 407 838 m 188 838 l 28 838 l 53 958 l 213 958 l 188 838 z "},"≠":{"ha":876,"x_min":18,"x_max":858,"o":"m 731 618 l 829 618 l 794 458 l 582 458 l 435 300 l 761 300 l 728 140 l 288 140 l 158 0 l 18 0 l 149 140 l 49 140 l 82 300 l 296 300 l 443 458 l 115 458 l 150 618 l 590 618 l 718 757 l 858 757 l 731 618 z "},"Æ":{"ha":1294,"x_min":-43,"x_max":1357,"o":"m 1332 838 l 974 838 l 910 539 l 1189 539 l 1164 419 l 885 419 l 821 119 l 1179 119 l 1154 0 l 476 0 l 540 300 l 340 300 l 276 0 l -43 0 l 128 808 q 193 917 143 876 q 310 958 243 958 l 1357 958 l 1332 838 m 454 838 l 365 419 l 565 419 l 654 838 l 454 838 z "},"Ø":{"ha":958,"x_min":-25,"x_max":983,"o":"m 456 838 l 369 435 l 628 707 l 656 838 l 456 838 m 331 250 l 303 119 l 503 119 l 589 522 l 331 250 m 829 150 q 764 41 814 82 q 647 0 714 0 l 108 0 q 8 41 40 0 q -10 150 -25 82 l 129 808 q 194 917 144 876 q 311 958 244 958 l 850 958 q 951 917 918 958 q 968 808 983 876 l 829 150 z "},"±":{"ha":876,"x_min":-22,"x_max":833,"o":"m 800 300 l 501 300 l 463 119 l 761 119 l 736 0 l -22 0 l 3 119 l 303 119 l 342 300 l 42 300 l 75 458 l 375 458 l 439 758 l 599 758 l 535 458 l 833 458 l 800 300 z "},"≤":{"ha":593,"x_min":-33,"x_max":625,"o":"m 601 582 l 199 422 l 533 263 l 511 153 l 46 374 l 67 469 l 625 690 l 601 582 m 478 0 l -33 0 l -11 103 l 500 103 l 478 0 z "},"≥":{"ha":593,"x_min":-33,"x_max":578,"o":"m 557 374 l 0 153 l 22 263 l 428 422 l 90 582 l 114 690 l 578 469 l 557 374 m 478 0 l -33 0 l -11 103 l 500 103 l 478 0 z "},"¥":{"ha":918,"x_min":142,"x_max":1146,"o":"m 746 300 l 1006 300 l 979 179 l 719 179 l 682 0 l 364 0 l 401 179 l 142 179 l 168 300 l 428 300 l 308 958 l 628 958 l 717 464 l 1017 958 l 1146 958 l 746 300 z "},"µ":{"ha":869,"x_min":-42,"x_max":911,"o":"m 781 150 q 715 41 765 82 q 599 0 665 0 l 294 0 l 254 -192 l -42 -192 l 161 767 l 457 767 l 317 106 l 476 106 l 617 767 l 911 767 l 781 150 z "},"∂":{"ha":869,"x_min":-26,"x_max":871,"o":"m 107 0 q 6 41 39 0 q -11 150 -26 82 l 96 647 q 147 733 107 700 q 240 767 188 767 l 576 767 l 536 958 l 832 958 l 871 767 l 708 0 l 107 0 m 394 661 l 276 106 l 436 106 l 554 661 l 394 661 z "},"∫":{"ha":568,"x_min":-201,"x_max":631,"o":"m -179 -86 l -35 -86 l 163 838 q 213 925 174 892 q 307 958 253 958 l 631 958 l 608 853 l 460 853 l 269 -42 q 204 -151 254 -110 q 88 -192 154 -192 l -201 -192 l -179 -86 z "},"ª":{"ha":421,"x_min":-6,"x_max":419,"o":"m 353 421 l 14 421 l 56 617 q 78 656 60 640 q 121 671 97 671 l 272 671 l 282 718 l 143 718 l 153 765 l 371 765 q 407 751 394 765 q 414 713 419 736 l 353 421 m 335 329 l -6 329 l 4 378 l 344 378 l 335 329 m 189 622 l 157 468 l 229 468 l 261 622 l 189 622 z "},"º":{"ha":419,"x_min":-6,"x_max":418,"o":"m 351 421 l 14 421 l 75 713 q 99 751 81 736 q 140 767 117 767 l 369 767 q 406 751 393 767 q 413 713 418 736 l 351 421 m 333 329 l -6 329 l 4 378 l 343 378 l 333 329 m 208 718 l 156 469 l 228 469 l 281 718 l 208 718 z "},"æ":{"ha":1325,"x_min":-7,"x_max":1332,"o":"m 869 661 l 750 106 l 910 106 l 1029 661 l 869 661 m 369 447 l 296 106 l 456 106 l 529 447 l 369 447 m 71 435 q 122 521 82 488 q 215 554 163 554 l 551 554 l 575 661 l 267 661 l 289 767 l 1228 767 q 1306 733 1281 767 q 1321 647 1332 700 l 1217 150 q 1151 41 1201 82 q 1035 0 1101 0 l 126 0 q 26 41 58 0 q 8 150 -7 82 l 71 435 z "},"ø":{"ha":869,"x_min":-6,"x_max":876,"o":"m 417 671 l 350 357 l 551 550 l 576 671 l 417 671 m 319 217 l 294 96 l 454 96 l 521 410 l 319 217 m 115 647 q 167 733 126 700 q 261 767 208 767 l 772 767 q 851 733 825 767 q 865 647 876 700 l 761 150 q 696 41 746 82 q 579 0 646 0 l 128 0 q 27 41 60 0 q 10 150 -6 82 l 115 647 z "},"¿":{"ha":958,"x_min":-25,"x_max":856,"o":"m 667 607 l 428 607 l 461 767 l 700 767 l 667 607 m 829 -42 q 764 -151 814 -110 q 647 -192 714 -192 l 108 -192 q 8 -151 40 -192 q -10 -42 -25 -110 l 97 467 l 636 467 l 611 347 l 392 347 l 303 -72 l 503 -72 l 536 88 l 856 88 l 829 -42 z "},"¡":{"ha":360,"x_min":-42,"x_max":401,"o":"m 368 607 l 128 607 l 161 767 l 401 767 l 368 607 m 199 -192 l -42 -192 l 97 467 l 338 467 l 199 -192 z "},"¬":{"ha":636,"x_min":39,"x_max":622,"o":"m 572 179 l 453 179 l 478 300 l 39 300 l 64 419 l 622 419 l 572 179 z "},"ƒ":{"ha":782,"x_min":-103,"x_max":868,"o":"m 368 -42 q 303 -151 353 -110 q 186 -192 253 -192 l -103 -192 l -81 -86 l 64 -86 l 224 661 l 79 661 l 101 767 l 246 767 q 262 835 253 801 q 288 897 271 869 q 332 941 304 924 q 406 958 360 958 l 868 958 l 846 853 l 558 853 l 540 767 l 764 767 l 742 661 l 518 661 l 368 -42 z "},"«":{"ha":899,"x_min":60,"x_max":893,"o":"m 685 382 l 782 118 l 504 118 l 407 382 l 615 646 l 893 646 l 685 382 m 338 382 l 435 118 l 157 118 l 60 382 l 268 646 l 546 646 l 338 382 z "},"»":{"ha":899,"x_min":4,"x_max":838,"o":"m 629 118 l 351 118 l 560 382 l 463 646 l 740 646 l 838 382 l 629 118 m 282 118 l 4 118 l 213 382 l 115 646 l 393 646 l 490 382 l 282 118 z "},"…":{"ha":960,"x_min":24,"x_max":936,"o":"m 903 0 l 663 0 l 696 160 l 936 160 l 903 0 m 583 0 l 343 0 l 376 160 l 617 160 l 583 0 m 264 0 l 24 0 l 57 160 l 297 160 l 264 0 z "}," ":{"ha":268,"x_min":0,"x_max":0,"o":""},"À":{"ha":958,"x_min":-42,"x_max":983,"o":"m 561 1033 l 486 1153 l 606 1153 l 681 1033 l 561 1033 m 797 0 l 478 0 l 542 300 l 342 300 l 278 0 l -42 0 l 129 808 q 194 917 144 876 q 311 958 244 958 l 850 958 q 951 917 918 958 q 968 808 983 876 l 797 0 m 456 838 l 367 419 l 567 419 l 656 838 l 456 838 z "},"Ã":{"ha":958,"x_min":-42,"x_max":983,"o":"m 853 1174 q 827 1114 843 1143 q 788 1062 811 1085 q 737 1025 765 1039 q 674 1011 708 1011 q 627 1018 647 1011 q 589 1033 607 1025 q 555 1049 571 1042 q 521 1056 539 1056 q 486 1044 503 1056 q 463 1014 469 1032 l 372 1014 q 398 1073 382 1044 q 437 1124 414 1101 q 488 1161 460 1147 q 550 1175 517 1175 q 597 1168 576 1175 q 636 1153 618 1161 q 670 1138 654 1144 q 704 1131 686 1131 q 740 1143 724 1131 q 763 1174 756 1156 l 853 1174 m 797 0 l 478 0 l 542 300 l 342 300 l 278 0 l -42 0 l 129 808 q 194 917 144 876 q 311 958 244 958 l 850 958 q 951 917 918 958 q 968 808 983 876 l 797 0 m 456 838 l 367 419 l 567 419 l 656 838 l 456 838 z "},"Õ":{"ha":958,"x_min":-49,"x_max":960,"o":"m 831 1174 q 805 1114 821 1143 q 766 1062 789 1085 q 714 1025 743 1039 q 651 1011 685 1011 q 603 1018 624 1011 q 566 1033 583 1025 q 533 1049 549 1042 q 499 1056 517 1056 q 463 1044 479 1056 q 439 1014 446 1032 l 349 1014 q 374 1073 358 1044 q 413 1124 390 1101 q 465 1161 436 1147 q 528 1175 494 1175 q 575 1168 554 1175 q 613 1153 596 1161 q 647 1138 631 1144 q 681 1131 663 1131 q 717 1143 700 1131 q 740 1174 733 1156 l 831 1174 m 432 838 l 279 119 l 479 119 l 632 838 l 432 838 m 806 150 q 740 41 790 82 q 624 0 690 0 l 85 0 q -16 41 17 0 q -33 150 -49 82 l 106 808 q 171 917 121 876 q 288 958 221 958 l 826 958 q 927 917 894 958 q 944 808 960 876 l 806 150 z "},"Œ":{"ha":1294,"x_min":-25,"x_max":1358,"o":"m 456 838 l 303 119 l 503 119 l 656 838 l 456 838 m 108 0 q 8 41 40 0 q -10 150 -25 82 l 129 808 q 194 917 144 876 q 311 958 244 958 l 1358 958 l 1333 838 l 975 838 l 911 539 l 1190 539 l 1165 419 l 886 419 l 822 119 l 1181 119 l 1156 0 l 108 0 z "},"œ":{"ha":1294,"x_min":-11,"x_max":1328,"o":"m 122 0 q 22 41 54 0 q 4 150 -11 82 l 111 647 q 163 733 122 700 q 257 767 204 767 l 1224 767 q 1302 733 1276 767 q 1317 647 1328 700 l 1225 211 l 769 211 l 746 106 l 1201 106 l 1179 0 l 122 0 m 865 661 l 792 319 l 951 319 l 1025 661 l 865 661 m 411 661 l 292 106 l 451 106 l 571 661 l 411 661 z "},"–":{"ha":636,"x_min":26,"x_max":610,"o":"m 585 300 l 26 300 l 51 419 l 610 419 l 585 300 z "},"—":{"ha":799,"x_min":28,"x_max":771,"o":"m 746 300 l 28 300 l 53 419 l 771 419 l 746 300 z "},"“":{"ha":658,"x_min":31,"x_max":603,"o":"m 569 647 l 331 647 l 364 806 q 374 824 364 806 q 394 863 383 842 q 416 904 406 885 q 428 926 426 924 l 549 926 l 483 806 l 603 806 l 569 647 m 271 647 l 31 647 l 64 806 q 74 824 64 806 q 95 863 83 842 q 117 904 107 885 q 129 926 128 924 l 249 926 l 183 806 l 304 806 l 271 647 z "},"”":{"ha":658,"x_min":54,"x_max":626,"o":"m 593 767 q 583 749 593 767 q 563 709 574 731 q 541 669 551 688 q 529 647 531 650 l 408 647 l 474 767 l 354 767 l 388 926 l 626 926 l 593 767 m 294 767 q 285 749 294 767 q 263 709 275 731 q 241 669 251 688 q 229 647 231 650 l 110 647 l 175 767 l 54 767 l 88 926 l 328 926 l 294 767 z "},"‘":{"ha":360,"x_min":29,"x_max":303,"o":"m 269 647 l 29 647 l 63 806 q 72 824 63 806 q 94 863 82 842 q 116 904 106 885 q 128 926 126 924 l 247 926 l 183 806 l 303 806 l 269 647 z "},"’":{"ha":360,"x_min":54,"x_max":328,"o":"m 294 767 q 285 749 294 767 q 263 709 275 731 q 241 669 251 688 q 229 647 231 650 l 110 647 l 175 767 l 54 767 l 88 926 l 328 926 l 294 767 z "},"÷":{"ha":679,"x_min":28,"x_max":651,"o":"m 514 558 l 275 558 l 308 718 l 547 718 l 514 558 m 626 300 l 28 300 l 53 419 l 651 419 l 626 300 m 394 0 l 156 0 l 189 160 l 428 160 l 394 0 z "},"ÿ":{"ha":869,"x_min":14,"x_max":911,"o":"m 739 838 l 579 838 l 606 958 l 765 958 l 739 838 m 519 838 l 360 838 l 386 958 l 546 958 l 519 838 m 131 -86 l 436 -86 l 454 0 l 147 0 q 47 41 79 0 q 29 150 14 82 l 161 767 l 457 767 l 317 106 l 476 106 l 617 767 l 911 767 l 740 -42 q 675 -151 725 -110 q 558 -192 625 -192 l 107 -192 l 131 -86 z "},"Ÿ":{"ha":918,"x_min":142,"x_max":981,"o":"m 768 1028 l 608 1028 l 633 1147 l 793 1147 l 768 1028 m 549 1028 l 389 1028 l 414 1147 l 574 1147 l 549 1028 m 582 300 l 518 0 l 199 0 l 263 300 l 142 958 l 461 958 l 551 464 l 850 958 l 981 958 l 582 300 z "},"⁄":{"ha":708,"x_min":-61,"x_max":772,"o":"m 69 0 l -61 0 l 642 958 l 772 958 l 69 0 z "},"¤":{"ha":806,"x_min":-21,"x_max":828,"o":"m 726 644 q 756 549 750 599 q 749 443 761 500 q 712 338 738 386 q 646 243 686 290 l 708 167 l 607 85 l 540 160 q 331 97 438 97 q 228 114 272 97 q 143 164 183 131 l 44 85 l -21 167 l 76 249 q 58 443 35 335 q 96 547 69 497 q 164 642 122 597 l 99 726 l 200 813 l 267 726 q 370 774 319 757 q 478 790 421 790 q 660 728 588 790 l 763 813 l 828 726 l 726 644 m 601 443 q 602 519 610 483 q 574 583 594 556 q 520 626 553 610 q 447 642 488 642 q 366 626 406 642 q 294 583 326 610 q 238 519 261 556 q 206 443 214 483 q 205 366 197 401 q 234 303 213 331 q 289 261 256 276 q 363 246 322 246 q 442 261 403 246 q 514 303 482 276 q 569 367 546 331 q 601 443 593 403 z "},"‹":{"ha":550,"x_min":60,"x_max":546,"o":"m 338 382 l 435 118 l 157 118 l 60 382 l 268 646 l 546 646 l 338 382 z "},"›":{"ha":550,"x_min":4,"x_max":490,"o":"m 282 118 l 4 118 l 213 382 l 115 646 l 393 646 l 490 382 l 282 118 z "},"ﬁ":{"ha":1040,"x_min":58,"x_max":1039,"o":"m 876 0 l 581 0 l 721 661 l 497 661 l 357 0 l 63 0 l 203 661 l 58 661 l 81 767 l 225 767 q 241 835 232 801 q 267 897 250 869 q 311 941 283 924 q 385 958 339 958 l 847 958 l 825 853 l 538 853 l 519 767 l 1039 767 l 876 0 z "},"ﬂ":{"ha":1101,"x_min":58,"x_max":1143,"o":"m 940 0 l 644 0 l 825 853 l 538 853 l 519 767 l 743 767 l 721 661 l 497 661 l 357 0 l 63 0 l 203 661 l 58 661 l 81 767 l 225 767 q 241 835 232 801 q 267 897 250 869 q 311 941 283 924 q 385 958 339 958 l 1143 958 l 940 0 z "},"‡":{"ha":636,"x_min":-12,"x_max":660,"o":"m 635 558 l 456 558 l 392 260 l 571 260 l 546 140 l 367 140 l 296 -192 l 96 -192 l 167 140 l -12 140 l 13 260 l 192 260 l 256 558 l 76 558 l 101 679 l 281 679 l 340 958 l 540 958 l 481 679 l 660 679 l 635 558 z "},"·":{"ha":239,"x_min":28,"x_max":213,"o":"m 188 319 l 28 319 l 53 439 l 213 439 l 188 319 z "},"‚":{"ha":319,"x_min":36,"x_max":308,"o":"m 275 0 q 265 -18 275 0 q 244 -58 256 -36 q 222 -98 232 -79 q 210 -119 211 -117 l 90 -119 l 156 0 l 36 0 l 69 160 l 308 160 l 275 0 z "},"„":{"ha":617,"x_min":35,"x_max":607,"o":"m 574 0 q 564 -18 574 0 q 542 -58 554 -36 q 520 -98 531 -79 q 508 -119 510 -117 l 389 -119 l 454 0 l 335 0 l 368 160 l 607 160 l 574 0 m 274 0 q 264 -18 274 0 q 243 -58 254 -36 q 222 -98 232 -79 q 210 -119 211 -117 l 89 -119 l 154 0 l 35 0 l 68 160 l 307 160 l 274 0 z "},"‰":{"ha":1331,"x_min":46,"x_max":1271,"o":"m 1190 0 l 856 0 l 936 383 l 1271 383 l 1190 0 m 394 575 l 60 575 l 140 958 l 475 958 l 394 575 m 175 0 l 46 0 l 749 958 l 879 958 l 175 0 m 775 0 l 440 0 l 521 383 l 856 383 l 775 0 m 1054 335 l 993 47 l 1072 47 l 1133 335 l 1054 335 m 258 910 l 197 622 l 276 622 l 338 910 l 258 910 m 639 335 l 578 47 l 658 47 l 719 335 l 639 335 z "},"Â":{"ha":958,"x_min":-42,"x_max":983,"o":"m 636 1036 l 606 1083 l 556 1036 l 436 1036 l 563 1156 l 682 1156 l 756 1036 l 636 1036 m 797 0 l 478 0 l 542 300 l 342 300 l 278 0 l -42 0 l 129 808 q 194 917 144 876 q 311 958 244 958 l 850 958 q 951 917 918 958 q 968 808 983 876 l 797 0 m 456 838 l 367 419 l 567 419 l 656 838 l 456 838 z "},"Ê":{"ha":778,"x_min":-25,"x_max":840,"o":"m 536 1036 l 506 1083 l 457 1036 l 336 1036 l 463 1156 l 582 1156 l 656 1036 l 536 1036 m 108 0 q 8 41 40 0 q -10 150 -25 82 l 129 808 q 194 917 144 876 q 311 958 244 958 l 840 958 l 815 838 l 456 838 l 392 539 l 671 539 l 646 419 l 367 419 l 303 119 l 663 119 l 638 0 l 108 0 z "},"Á":{"ha":958,"x_min":-42,"x_max":983,"o":"m 631 1033 l 511 1033 l 636 1153 l 756 1153 l 631 1033 m 797 0 l 478 0 l 542 300 l 342 300 l 278 0 l -42 0 l 129 808 q 194 917 144 876 q 311 958 244 958 l 850 958 q 951 917 918 958 q 968 808 983 876 l 797 0 m 456 838 l 367 419 l 567 419 l 656 838 l 456 838 z "},"Ë":{"ha":778,"x_min":-25,"x_max":840,"o":"m 706 1028 l 546 1028 l 571 1147 l 731 1147 l 706 1028 m 486 1028 l 326 1028 l 351 1147 l 511 1147 l 486 1028 m 108 0 q 8 41 40 0 q -10 150 -25 82 l 129 808 q 194 917 144 876 q 311 958 244 958 l 840 958 l 815 838 l 456 838 l 392 539 l 671 539 l 646 419 l 367 419 l 303 119 l 663 119 l 638 0 l 108 0 z "},"È":{"ha":778,"x_min":-25,"x_max":840,"o":"m 481 1033 l 407 1153 l 526 1153 l 601 1033 l 481 1033 m 108 0 q 8 41 40 0 q -10 150 -25 82 l 129 808 q 194 917 144 876 q 311 958 244 958 l 840 958 l 815 838 l 456 838 l 392 539 l 671 539 l 646 419 l 367 419 l 303 119 l 663 119 l 638 0 l 108 0 z "},"Í":{"ha":438,"x_min":-43,"x_max":507,"o":"m 382 1033 l 263 1033 l 388 1153 l 507 1153 l 382 1033 m 276 0 l -43 0 l 160 958 l 479 958 l 276 0 z "},"Î":{"ha":438,"x_min":-43,"x_max":496,"o":"m 375 1036 l 346 1083 l 296 1036 l 176 1036 l 303 1156 l 422 1156 l 496 1036 l 375 1036 m 276 0 l -43 0 l 160 958 l 479 958 l 276 0 z "},"Ï":{"ha":438,"x_min":-43,"x_max":550,"o":"m 525 1028 l 365 1028 l 390 1147 l 550 1147 l 525 1028 m 306 1028 l 146 1028 l 171 1147 l 331 1147 l 306 1028 m 276 0 l -43 0 l 160 958 l 479 958 l 276 0 z "},"Ì":{"ha":438,"x_min":-43,"x_max":479,"o":"m 300 1033 l 226 1153 l 346 1153 l 421 1033 l 300 1033 m 276 0 l -43 0 l 160 958 l 479 958 l 276 0 z "},"Ó":{"ha":958,"x_min":-25,"x_max":983,"o":"m 613 1033 l 493 1033 l 618 1153 l 738 1153 l 613 1033 m 829 150 q 764 41 814 82 q 647 0 714 0 l 108 0 q 8 41 40 0 q -10 150 -25 82 l 129 808 q 194 917 144 876 q 311 958 244 958 l 850 958 q 951 917 918 958 q 968 808 983 876 l 829 150 m 456 838 l 303 119 l 503 119 l 656 838 l 456 838 z "},"Ô":{"ha":958,"x_min":-25,"x_max":983,"o":"m 636 1036 l 606 1083 l 556 1036 l 436 1036 l 563 1156 l 682 1156 l 756 1036 l 636 1036 m 829 150 q 764 41 814 82 q 647 0 714 0 l 108 0 q 8 41 40 0 q -10 150 -25 82 l 129 808 q 194 917 144 876 q 311 958 244 958 l 850 958 q 951 917 918 958 q 968 808 983 876 l 829 150 m 456 838 l 303 119 l 503 119 l 656 838 l 456 838 z "},"Ò":{"ha":958,"x_min":-25,"x_max":983,"o":"m 561 1033 l 486 1153 l 606 1153 l 681 1033 l 561 1033 m 829 150 q 764 41 814 82 q 647 0 714 0 l 108 0 q 8 41 40 0 q -10 150 -25 82 l 129 808 q 194 917 144 876 q 311 958 244 958 l 850 958 q 951 917 918 958 q 968 808 983 876 l 829 150 m 456 838 l 303 119 l 503 119 l 656 838 l 456 838 z "},"Ú":{"ha":958,"x_min":-25,"x_max":1000,"o":"m 633 1033 l 513 1033 l 638 1153 l 758 1153 l 633 1033 m 829 150 q 764 41 814 82 q 647 0 714 0 l 108 0 q 8 41 40 0 q -10 150 -25 82 l 161 958 l 481 958 l 303 119 l 503 119 l 681 958 l 1000 958 l 829 150 z "},"Û":{"ha":958,"x_min":-25,"x_max":1000,"o":"m 636 1036 l 606 1083 l 556 1036 l 436 1036 l 563 1156 l 682 1156 l 756 1036 l 636 1036 m 829 150 q 764 41 814 82 q 647 0 714 0 l 108 0 q 8 41 40 0 q -10 150 -25 82 l 161 958 l 481 958 l 303 119 l 503 119 l 681 958 l 1000 958 l 829 150 z "},"Ù":{"ha":958,"x_min":-25,"x_max":1000,"o":"m 561 1033 l 486 1153 l 606 1153 l 681 1033 l 561 1033 m 829 150 q 764 41 814 82 q 647 0 714 0 l 108 0 q 8 41 40 0 q -10 150 -25 82 l 161 958 l 481 958 l 303 119 l 503 119 l 681 958 l 1000 958 l 829 150 z "},"ı":{"ha":415,"x_min":-22,"x_max":438,"o":"m 274 0 l -22 0 l 142 767 l 438 767 l 274 0 z "},"ˆ":{"ha":397,"x_min":26,"x_max":346,"o":"m 226 836 l 196 883 l 146 836 l 26 836 l 151 956 l 271 956 l 346 836 l 226 836 z "},"˜":{"ha":529,"x_min":24,"x_max":506,"o":"m 506 982 q 479 922 496 951 q 440 870 463 893 q 388 833 417 847 q 325 819 360 819 q 278 826 299 819 q 241 842 258 833 q 207 857 224 850 q 172 864 190 864 q 138 852 153 864 q 114 822 122 840 l 24 822 q 49 881 33 853 q 88 933 65 910 q 140 969 111 956 q 203 983 169 983 q 250 976 229 983 q 288 961 271 969 q 322 946 306 953 q 357 939 338 939 q 392 951 376 939 q 414 982 407 964 l 506 982 l 506 982 z "},"¯":{"ha":519,"x_min":28,"x_max":492,"o":"m 467 838 l 28 838 l 53 958 l 492 958 l 467 838 z "},"˘":{"ha":522,"x_min":61,"x_max":488,"o":"m 488 994 q 399 858 464 897 q 243 818 333 818 q 162 828 197 818 q 103 858 126 838 q 71 913 81 879 q 69 994 61 946 l 161 994 q 169 956 161 971 q 190 934 176 942 q 224 924 204 926 q 264 921 243 921 q 342 934 307 921 q 397 994 378 947 l 488 994 l 488 994 z "},"˙":{"ha":239,"x_min":28,"x_max":213,"o":"m 188 838 l 28 838 l 53 958 l 213 958 l 188 838 z "},"˚":{"ha":321,"x_min":31,"x_max":289,"o":"m 279 958 q 260 912 274 933 q 226 874 246 890 q 184 849 207 858 q 136 839 161 839 q 58 874 86 839 q 42 958 31 908 q 61 1005 47 983 q 94 1042 75 1026 q 138 1067 114 1058 q 186 1076 161 1076 q 262 1042 235 1076 q 279 958 289 1007 m 213 958 q 205 994 217 979 q 172 1010 193 1010 q 132 994 151 1010 q 108 958 113 979 q 116 921 104 936 q 150 906 128 906 q 190 922 171 906 q 213 958 208 938 z "},"¸":{"ha":269,"x_min":11,"x_max":246,"o":"m 239 -115 q 221 -151 235 -136 q 188 -176 207 -167 q 149 -191 169 -186 q 111 -196 129 -196 q 59 -188 83 -196 q 11 -171 35 -181 l 36 -133 q 69 -144 53 -139 q 104 -150 85 -150 q 135 -143 119 -150 q 156 -118 151 -136 q 147 -96 158 -101 q 121 -90 135 -90 q 90 -97 108 -90 l 72 -78 l 136 0 l 185 0 l 142 -54 q 168 -50 154 -50 q 222 -65 199 -50 q 239 -115 246 -81 z "},"˝":{"ha":519,"x_min":28,"x_max":492,"o":"m 367 836 l 247 836 l 372 956 l 492 956 l 367 836 m 147 836 l 28 836 l 153 956 l 272 956 l 147 836 z "},"˛":{"ha":269,"x_min":7,"x_max":246,"o":"m 244 7 q 203 -10 225 0 q 161 -33 181 -19 q 126 -63 142 -46 q 107 -103 111 -81 q 111 -134 103 -122 q 139 -146 119 -146 q 183 -133 158 -146 q 226 -110 208 -119 l 238 -142 q 165 -178 203 -161 q 92 -196 128 -196 q 31 -176 54 -196 q 15 -115 7 -156 q 49 -56 22 -81 q 110 -17 76 -32 q 181 6 144 -3 q 246 18 218 14 l 244 7 z "},"ˇ":{"ha":507,"x_min":50,"x_max":488,"o":"m 488 992 q 394 852 461 893 q 233 811 326 811 q 151 821 188 811 q 92 852 115 831 q 59 908 68 874 q 58 992 50 943 l 151 992 q 160 953 151 968 q 183 931 168 939 q 216 921 197 924 q 257 918 235 918 q 299 921 278 918 q 337 931 319 924 q 369 953 354 939 q 394 992 383 968 l 488 992 l 488 992 z "},"Ð":{"ha":958,"x_min":-56,"x_max":983,"o":"m 829 150 q 764 41 814 82 q 647 0 714 0 l -42 0 l 44 410 l -56 410 l -29 529 l 71 529 l 161 958 l 850 958 q 951 917 918 958 q 968 808 983 876 l 829 150 m 456 838 l 390 529 l 490 529 l 464 410 l 364 410 l 303 119 l 503 119 l 656 838 l 456 838 z "},"ð":{"ha":869,"x_min":-49,"x_max":910,"o":"m 372 661 l 254 106 l 414 106 l 532 661 l 372 661 m 74 647 q 126 733 85 700 q 219 767 167 767 l 554 767 l 514 958 l 810 958 l 890 986 l 910 875 l 832 847 l 850 767 l 688 0 l 85 0 q -16 41 17 0 q -33 150 -49 82 l 74 647 z "}}}
